<svg width="100" height="100" viewBox="0 0 100 100" fill="none" xmlns="http://www.w3.org/2000/svg">
<path d="M25 33.3333C18.75 33.3334 18.75 41.6667 25 41.6667L33.3355 41.6667C35.6367 41.6667 37.5 43.5187 37.5 45.8199V85.4167C37.5 91.6667 45.8333 91.6667 45.8333 85.4167C45.8333 79.1667 45.8333 66.6667 50 66.6667C54.1667 66.6667 54.1667 79.1667 54.1667 85.4167C54.1667 91.6667 62.5 91.6667 62.5 85.4167V45.8333C62.5 43.5322 64.3655 41.6667 66.6667 41.6667H75C81.25 41.6667 81.25 33.3333 75 33.3333H25Z" stroke="#062CFF" stroke-width="3.83" stroke-linecap="round"/>
<path d="M58.3334 18.75C58.3334 23.3524 54.6025 27.0833 50.0001 27.0833C45.3977 27.0833 41.6667 23.3524 41.6667 18.75C41.6667 14.1476 45.3977 10.4167 50.0001 10.4167C54.6025 10.4167 58.3334 14.1476 58.3334 18.75Z" stroke="#062CFF" stroke-width="3.83"/>
</svg>
