<svg width="100" height="100" viewBox="0 0 100 100" fill="none" xmlns="http://www.w3.org/2000/svg">
<path d="M45.8332 89.5833V20.8333C45.8332 18.0556 46.2499 12.5 39.5832 12.5C33.011 12.5 31.6221 20.2751 35.4166 23.5613M45.8332 89.5833C38.3962 89.5833 35.937 82.9461 38.4557 78.5568M32.7666 18.389C30.8775 18.0442 28.9245 18.2436 27.0805 18.9696C25.2365 19.6955 23.5585 20.9256 22.1951 22.5509C20.8316 24.1762 19.8249 26.1465 19.2641 28.2873C18.7032 30.4281 18.6056 32.6733 18.9797 34.824C19.3539 36.9747 20.1883 38.9646 21.4091 40.6174C22.63 42.2701 24.1995 43.5347 25.9786 44.2992M25.896 70.9768C25.2773 72.175 24.9695 73.5568 24.9999 74.9999C25.0304 76.4431 25.398 77.903 26.0704 79.2503C26.7427 80.5977 27.699 81.7909 28.8544 82.7243C30.0099 83.6577 31.329 84.3024 32.6947 84.6014C34.0605 84.9004 35.4308 84.8444 36.6842 84.4384M21.4622 41.5718C20.2695 41.7067 19.1352 42.171 18.1601 42.9235C17.1849 43.6761 16.3988 44.6937 15.8714 45.8862C15.3441 47.0788 15.0918 48.4094 15.1368 49.7603C15.1819 51.1112 15.5229 52.4407 16.1297 53.6309C16.7365 54.8211 17.5904 55.8354 18.6156 56.5839C19.6409 57.3324 20.8059 57.792 22.0075 57.9219M19.7176 57.6751C18.5417 58.4808 17.5829 59.5644 16.926 60.8298C16.2692 62.0953 15.9347 63.5036 15.9521 64.9301C15.9695 66.3565 16.3383 67.757 17.0258 69.0075C17.7133 70.2581 18.6984 71.32 19.8936 72.0993C21.0889 72.8786 22.4576 73.3512 23.8783 73.4753" stroke="#062CFF" stroke-width="3.38" stroke-linecap="round"/>
<path d="M31.8149 51.2906C33.0616 51.3373 34.2991 51.0315 35.4178 50.4003C36.5365 49.7691 37.5019 48.832 38.2285 47.672C38.9551 46.512 39.4203 45.1649 39.5832 43.75C39.746 42.3351 39.6013 40.8961 39.1619 39.5605C38.7225 38.2249 38.002 37.0338 37.0642 36.0929" stroke="#062CFF" stroke-width="3.38" stroke-linecap="round" stroke-linejoin="round"/>
<path d="M45.6506 62.2661C44.3522 62.2675 43.1031 62.5647 42.0139 63.1312C40.9248 63.6977 40.0292 64.5161 39.4064 65.5139C38.7837 66.5118 38.4531 67.6582 38.4439 68.8517" stroke="#062CFF" stroke-width="3.38" stroke-linecap="round" stroke-linejoin="round"/>
<path d="M27.3191 59.8773C28.0294 59.8693 28.7096 60.0426 29.2996 60.3819C29.8895 60.7212 30.3709 61.216 30.7011 61.8225C31.0314 62.429 31.2003 63.1285 31.1928 63.8589" stroke="#062CFF" stroke-width="3.38" stroke-linecap="round" stroke-linejoin="round"/>
<path d="M31.25 29.1667C30.738 29.0087 30.1906 28.998 29.6564 29.1355C29.1221 29.273 28.6175 29.5544 28.1871 29.9549C27.7568 30.3553 27.414 30.8624 27.1892 31.4313C26.9644 32.0001 26.8645 32.6132 26.8983 33.2161C26.9321 33.819 27.0986 34.3931 27.3831 34.8877" stroke="#062CFF" stroke-width="3.38" stroke-linecap="round" stroke-linejoin="round"/>
<path d="M54.1718 89.5833V20.8333C54.1718 18.0556 53.7551 12.5 60.4218 12.5C66.9211 12.5 68.3515 20.1035 64.7129 23.4502M54.1718 89.5833C61.6088 89.5833 64.068 82.9461 61.5493 78.5568M67.2384 18.389C69.1275 18.0442 71.0805 18.2436 72.9245 18.9696C74.7685 19.6955 76.4465 20.9256 77.81 22.5509C79.1734 24.1762 80.1801 26.1465 80.7409 28.2873C81.3018 30.4281 81.3995 32.6733 81.0253 34.824C80.6511 36.9747 79.8167 38.9646 78.5959 40.6174C77.3751 42.2701 75.8056 43.5347 74.0264 44.2992M74.1092 70.9768C74.7278 72.175 75.0356 73.5568 75.0052 74.9999C74.9748 76.4431 74.6071 77.903 73.9348 79.2503C73.2624 80.5977 72.3062 81.7909 71.1507 82.7243C69.9952 83.6577 68.6762 84.3024 67.3104 84.6014C65.9447 84.9004 64.5744 84.8444 63.3209 84.4384M78.5428 41.5718C79.7356 41.7067 80.8698 42.171 81.845 42.9235C82.8201 43.6761 83.6062 44.6937 84.1336 45.8862C84.6609 47.0788 84.9132 48.4094 84.8682 49.7603C84.8231 51.1112 84.4821 52.4407 83.8753 53.6309C83.2685 54.8211 82.4146 55.8354 81.3894 56.5839C80.3641 57.3324 79.1991 57.792 77.9975 57.9219M80.2874 57.6751C81.4633 58.4808 82.4222 59.5644 83.079 60.8298C83.7358 62.0953 84.0703 63.5036 84.0529 64.9301C84.0355 66.3565 83.6667 67.757 82.9792 69.0075C82.2917 70.2581 81.3066 71.32 80.1114 72.0993C78.9161 72.8786 77.5474 73.3512 76.1267 73.4753" stroke="#062CFF" stroke-width="3.38" stroke-linecap="round"/>
<path d="M70.3678 50.2744C69.1465 50.5292 67.8753 50.4349 66.6667 50C65.4581 49.565 64.3494 48.8028 63.4389 47.7808C62.5283 46.7589 61.844 45.5087 61.4466 44.141C61.0492 42.7734 60.9509 41.3305 61.1604 39.9402" stroke="#062CFF" stroke-width="3.38" stroke-linecap="round" stroke-linejoin="round"/>
<path d="M64.1452 69.5828C65.4424 69.5278 66.6782 69.1793 67.743 68.5683C68.8079 67.9573 69.6689 67.1027 70.2499 66.08C70.8309 65.0573 71.1139 63.8982 71.0739 62.7053" stroke="#062CFF" stroke-width="3.38" stroke-linecap="round" stroke-linejoin="round"/>
<path d="M61.8103 56.5558C61.5488 57.2163 61.4675 57.9135 61.5734 58.5858C61.6794 59.258 61.9694 59.8845 62.4177 60.4098C62.8661 60.935 63.4589 61.3428 64.1437 61.5971" stroke="#062CFF" stroke-width="3.38" stroke-linecap="round" stroke-linejoin="round"/>
<path d="M69.5615 30.6426C70.0523 30.8576 70.4736 31.2072 70.7882 31.6603C71.1027 32.1135 71.3008 32.6563 71.3649 33.2407C71.4289 33.825 71.357 34.4328 71.1554 35.0103C70.9539 35.5878 70.6289 36.1172 70.2094 36.5514C69.7898 36.9857 69.2886 37.3115 68.75 37.5" stroke="#062CFF" stroke-width="3.38" stroke-linecap="round" stroke-linejoin="round"/>
</svg>
