<svg width="100" height="100" viewBox="0 0 100 100" fill="none" xmlns="http://www.w3.org/2000/svg">
<path d="M36.2713 85.4167C35.7078 74.3822 41.02 67.4046 50.0024 63.9603C55.9292 61.6877 63.8141 58.1294 63.7733 50.022C63.7474 44.8846 60.5014 41.5741 56.6281 39.241M36.2713 14.5833C35.8463 22.5718 38.5105 28.3477 43.365 32.292" stroke="#062CFF" stroke-width="3.83" stroke-miterlimit="10" stroke-linecap="round"/>
<path d="M63.7292 85.4167C64.1376 77.4197 61.4599 71.5536 56.5356 67.6189M63.7292 14.5833C64.3202 25.692 58.9375 32.5222 49.998 36.0984C44.1297 38.4459 36.2676 42.0151 36.2272 50.022C36.201 55.2273 39.4418 58.5573 43.3339 60.8758" stroke="#062CFF" stroke-width="3.83" stroke-miterlimit="10" stroke-linecap="round"/>
<path d="M41.6665 81.25H58.3332" stroke="#062CFF" stroke-width="3.83" stroke-linecap="round"/>
<path d="M45.833 25H54.1663" stroke="#062CFF" stroke-width="3.83" stroke-linecap="round"/>
<path d="M41.6665 18.75H58.3332" stroke="#062CFF" stroke-width="3.83" stroke-linecap="round"/>
<path d="M42.1294 50.3472H57.8701M46.0646 44.4445H53.935M46.0646 56.25H53.935" stroke="#062CFF" stroke-width="3.83" stroke-linecap="round"/>
<path d="M45.833 75H54.1663" stroke="#062CFF" stroke-width="3.83" stroke-linecap="round"/>
</svg>
