<svg width="100" height="100" viewBox="0 0 100 100" fill="none" xmlns="http://www.w3.org/2000/svg">
<path d="M18.3724 72.9167L29.3208 61.9682C29.7113 61.5777 29.7045 60.9478 29.3706 60.5079C27.0561 57.4586 27.4186 52.9521 30.3671 50.0036C33.5695 46.8012 38.6097 46.6493 41.6247 49.6644C42.9641 51.0037 43.6785 52.7428 43.7781 54.5428C43.7855 54.6757 43.8922 54.7825 44.0252 54.7898C45.8252 54.8895 47.5642 55.6039 48.9036 56.9433C51.9186 59.9583 51.7668 64.9985 48.5644 68.2008C45.6159 71.1494 41.1094 71.5118 38.0601 69.1974C37.6202 68.8635 36.9903 68.8566 36.5997 69.2472L25.4381 80.4088" stroke="#062CFF" stroke-width="3.83" stroke-linecap="round"/>
<path d="M72.9164 18.3725L61.943 29.3459C61.5525 29.7364 60.9226 29.7296 60.4826 29.3957C57.4327 27.0819 52.9225 27.4481 49.9694 30.4011C46.7621 33.6084 46.6063 38.6526 49.6213 41.6676C50.9606 43.007 52.7003 43.7206 54.5016 43.819C54.6347 43.8262 54.7416 43.9331 54.7489 44.0662C54.8472 45.8675 55.5609 47.6072 56.9002 48.9465C59.9152 51.9616 64.9594 51.8057 68.1667 48.5984C71.1197 45.6454 71.4859 41.1351 69.1721 38.0852C68.8383 37.6453 68.8314 37.0153 69.2219 36.6248L80.3756 25.4712" stroke="#062CFF" stroke-width="3.83" stroke-linecap="round"/>
<path d="M35.4168 35.4167L33.3335 33.3333" stroke="#062CFF" stroke-width="3.83" stroke-linecap="round"/>
<path d="M41.6665 33.3333L41.6665 31.25" stroke="#062CFF" stroke-width="3.83" stroke-linecap="round"/>
<path d="M33.3333 41.6667L31.25 41.6667" stroke="#062CFF" stroke-width="3.83" stroke-linecap="round"/>
<path d="M64.5832 64.5833L66.6665 66.6667" stroke="#062CFF" stroke-width="3.83" stroke-linecap="round"/>
<path d="M58.333 66.6667L58.333 68.75" stroke="#062CFF" stroke-width="3.83" stroke-linecap="round"/>
<path d="M66.6667 58.3333L68.75 58.3333" stroke="#062CFF" stroke-width="3.83" stroke-linecap="round"/>
</svg>
