<svg width="41" height="42" viewBox="0 0 41 42" fill="none" xmlns="http://www.w3.org/2000/svg">
<path d="M8.64169 30.7943C12.1828 28.7927 16.1824 27.7438 20.25 27.75C24.4688 27.75 28.4293 28.8553 31.8583 30.7943M25.3125 17.625C25.3125 18.9677 24.7791 20.2553 23.8297 21.2047C22.8803 22.1541 21.5927 22.6875 20.25 22.6875C18.9073 22.6875 17.6197 22.1541 16.6703 21.2047C15.7209 20.2553 15.1875 18.9677 15.1875 17.625C15.1875 16.2823 15.7209 14.9947 16.6703 14.0453C17.6197 13.0959 18.9073 12.5625 20.25 12.5625C21.5927 12.5625 22.8803 13.0959 23.8297 14.0453C24.7791 14.9947 25.3125 16.2823 25.3125 17.625ZM35.4375 21C35.4375 22.9945 35.0447 24.9694 34.2814 26.812C33.5182 28.6546 32.3995 30.3289 30.9892 31.7392C29.5789 33.1495 27.9046 34.2682 26.062 35.0314C24.2194 35.7947 22.2445 36.1875 20.25 36.1875C18.2555 36.1875 16.2806 35.7947 14.438 35.0314C12.5954 34.2682 10.9211 33.1495 9.51082 31.7392C8.10053 30.3289 6.98182 28.6546 6.21858 26.812C5.45534 24.9694 5.0625 22.9945 5.0625 21C5.0625 16.972 6.66261 13.109 9.51082 10.2608C12.359 7.41261 16.222 5.8125 20.25 5.8125C24.278 5.8125 28.141 7.41261 30.9892 10.2608C33.8374 13.109 35.4375 16.972 35.4375 21Z" stroke="#0957DE" stroke-width="2" stroke-linecap="round" stroke-linejoin="round"/>
</svg>
