<svg width="100" height="100" viewBox="0 0 100 100" fill="none" xmlns="http://www.w3.org/2000/svg">
<path d="M70.8335 45.8333C70.8335 49.697 71.2814 53.5607 71.7618 56.8015M29.1669 45.8333C29.1669 49.697 28.719 53.5607 28.2386 56.8015M71.7618 56.8015C72.3176 60.5505 72.9169 63.4659 72.9169 64.5833C72.9169 66.5493 63.641 68.5152 62.5957 68.7305C62.5327 68.7435 62.4834 68.7836 62.4547 68.8411L60.4745 72.8015C60.4392 72.8721 60.367 72.9167 60.2881 72.9167H39.7123C39.6334 72.9167 39.5613 72.8721 39.526 72.8015L37.5458 68.8411C37.517 68.7836 37.4677 68.7435 37.4047 68.7305C36.3594 68.5152 27.0835 66.5493 27.0835 64.5833C27.0835 63.4659 27.6829 60.5505 28.2386 56.8015M71.7618 56.8015L72.9169 54.1667C72.9169 54.1667 91.6669 14.5833 50.0002 14.5833C8.33352 14.5833 27.0835 54.1667 27.0835 54.1667L28.2386 56.8015" stroke="#062CFF" stroke-width="3.83" stroke-linecap="round"/>
<path d="M66.6668 75C64.5835 75 66.6668 77.0833 62.5002 81.25C57.8978 85.8524 41.9196 85.6694 37.5002 81.25C33.3335 77.0833 35.4168 75 33.3335 75" stroke="#062CFF" stroke-width="3.83" stroke-linecap="round"/>
<path d="M37.5 50C37.5 47.6988 39.3655 45.8333 41.6667 45.8333C53.0664 45.8333 37.5 61.736 37.5 50Z" stroke="#062CFF" stroke-width="3.83"/>
<path d="M62.5068 50C62.5068 47.6988 60.6414 45.8333 58.3402 45.8333C46.9405 45.8333 62.5068 61.736 62.5068 50Z" stroke="#062CFF" stroke-width="3.83"/>
<path d="M47.9165 62.5L49.9551 58.4228C49.9735 58.3859 50.0261 58.3859 50.0446 58.4228L52.0832 62.5" stroke="#062CFF" stroke-width="3.83" stroke-linecap="round"/>
<path d="M45.665 68.75C45.665 67.6924 44.8076 66.835 43.75 66.835C42.6924 66.835 41.835 67.6924 41.835 68.75H45.665ZM41.835 68.75V70.8333H45.665V68.75H41.835Z" fill="#062CFF"/>
<path d="M51.915 68.75C51.915 67.6924 51.0576 66.835 50 66.835C48.9424 66.835 48.085 67.6924 48.085 68.75H51.915ZM51.915 70.8333V68.75H48.085V70.8333H51.915Z" fill="#062CFF"/>
<path d="M58.165 68.75C58.165 67.6924 57.3076 66.835 56.25 66.835C55.1924 66.835 54.335 67.6924 54.335 68.75H58.165ZM58.165 70.8333V68.75H54.335V70.8333H58.165Z" fill="#062CFF"/>
</svg>
