<svg width="100" height="100" viewBox="0 0 100 100" fill="none" xmlns="http://www.w3.org/2000/svg">
<path d="M39.8793 68.7042C38.1153 72.541 37.5419 76.8187 36.0425 80.7436C35.1711 84.0073 32.1526 83.1561 30.1772 81.3169C18.1551 67.9203 9.04825 35.4439 23.2975 20.3702C30.5815 12.2652 37.5002 23.6218 50.0002 23.6218C62.5002 23.6218 69.5108 12.3401 76.7472 20.3702C91.0028 35.5597 81.6348 67.9078 69.5588 81.3169C67.6995 83.3251 64.4897 83.9204 63.6494 80.7436C62.15 76.8187 61.6208 72.541 59.8568 68.7042C55.9306 59.2536 43.9245 59.6246 39.8793 68.7042Z" stroke="#062CFF" stroke-width="3.83" stroke-miterlimit="10"/>
<path d="M70.8335 25C75.0002 27.0833 75.0002 31.25 75.0002 33.3333" stroke="#062CFF" stroke-width="3.83" stroke-linecap="round"/>
</svg>
